<?xml version="1.0" encoding="UTF-8"?><svg id="Layer_2" xmlns="http://www.w3.org/2000/svg" viewBox="0 0 46.12 68.47"><g id="Layer_1-2"><path d="M31.72,35.66c1.67-.89,4.21-2.5,6.53-5.25,1.12-1.33,6.35-7.54,5.09-16.24-1.3-9.02-8.54-13.56-9.55-14.17-3.13,4.09-6.26,8.17-9.39,12.26-2.44.2-6.75.86-11.3,3.5-2.2,1.27-8.01,5.06-11.14,12.58-4,9.59-.73,18.25,0,20.06.39-1.9,1.34-5.22,3.82-8.6,2.81-3.83,6.17-5.8,7.96-6.69,6,.85,11.99,1.7,17.99,2.55Z" fill="#061637" stroke-width="0"/><path d="M14.4,32.81c-1.67.89-4.21,2.5-6.53,5.25-1.12,1.33-6.35,7.54-5.09,16.24,1.3,9.02,8.54,13.56,9.55,14.17,3.13-4.09,6.26-8.17,9.39-12.26,2.44-.2,6.75-.86,11.3-3.5,2.2-1.27,8.01-5.06,11.14-12.58,4-9.59.73-18.25,0-20.06-.39,1.9-1.34,5.22-3.82,8.6-2.81,3.83-6.17,5.8-7.96,6.69-6-.85-11.99-1.7-17.99-2.55Z" fill="#061637" stroke-width="0"/><circle cx="23.06" cy="34.23" r="7.2" fill="#fff200" stroke-width="0"/></g></svg>